<svg id="visual" viewBox="0 0 960 540" width="960" height="540" xmlns="http://www.w3.org/2000/svg" xmlns:xlink="http://www.w3.org/1999/xlink" version="1.1"><rect x="0" y="0" width="960" height="540" fill="#001220"></rect><path d="M0 381L22.8 382.7C45.7 384.3 91.3 387.7 137 389.2C182.7 390.7 228.3 390.3 274 381.8C319.7 373.3 365.3 356.7 411.2 350.2C457 343.7 503 347.3 548.8 357.3C594.7 367.3 640.3 383.7 686 378.8C731.7 374 777.3 348 823 334.7C868.7 321.3 914.3 320.7 937.2 320.3L960 320L960 541L937.2 541C914.3 541 868.7 541 823 541C777.3 541 731.7 541 686 541C640.3 541 594.7 541 548.8 541C503 541 457 541 411.2 541C365.3 541 319.7 541 274 541C228.3 541 182.7 541 137 541C91.3 541 45.7 541 22.8 541L0 541Z" fill="#ffffff"></path><path d="M0 368L22.8 370.2C45.7 372.3 91.3 376.7 137 385.8C182.7 395 228.3 409 274 408.5C319.7 408 365.3 393 411.2 391.2C457 389.3 503 400.7 548.8 408C594.7 415.3 640.3 418.7 686 416.5C731.7 414.3 777.3 406.7 823 403.3C868.7 400 914.3 401 937.2 401.5L960 402L960 541L937.2 541C914.3 541 868.7 541 823 541C777.3 541 731.7 541 686 541C640.3 541 594.7 541 548.8 541C503 541 457 541 411.2 541C365.3 541 319.7 541 274 541C228.3 541 182.7 541 137 541C91.3 541 45.7 541 22.8 541L0 541Z" fill="#f2f2f2"></path><path d="M0 424L22.8 422.8C45.7 421.7 91.3 419.3 137 417.5C182.7 415.7 228.3 414.3 274 416.3C319.7 418.3 365.3 423.7 411.2 421.3C457 419 503 409 548.8 410.3C594.7 411.7 640.3 424.3 686 432C731.7 439.7 777.3 442.3 823 441.7C868.7 441 914.3 437 937.2 435L960 433L960 541L937.2 541C914.3 541 868.7 541 823 541C777.3 541 731.7 541 686 541C640.3 541 594.7 541 548.8 541C503 541 457 541 411.2 541C365.3 541 319.7 541 274 541C228.3 541 182.7 541 137 541C91.3 541 45.7 541 22.8 541L0 541Z" fill="#e5e5e5"></path><path d="M0 459L22.8 457C45.7 455 91.3 451 137 454.3C182.7 457.7 228.3 468.3 274 467.5C319.7 466.7 365.3 454.3 411.2 454.5C457 454.7 503 467.3 548.8 474.8C594.7 482.3 640.3 484.7 686 484.2C731.7 483.7 777.3 480.3 823 471.5C868.7 462.7 914.3 448.3 937.2 441.2L960 434L960 541L937.2 541C914.3 541 868.7 541 823 541C777.3 541 731.7 541 686 541C640.3 541 594.7 541 548.8 541C503 541 457 541 411.2 541C365.3 541 319.7 541 274 541C228.3 541 182.7 541 137 541C91.3 541 45.7 541 22.8 541L0 541Z" fill="#d8d8d8"></path><path d="M0 494L22.8 491.5C45.7 489 91.3 484 137 483.5C182.7 483 228.3 487 274 487.8C319.7 488.7 365.3 486.3 411.2 489.3C457 492.3 503 500.7 548.8 505.5C594.7 510.3 640.3 511.7 686 510.2C731.7 508.7 777.3 504.3 823 498.2C868.7 492 914.3 484 937.2 480L960 476L960 541L937.2 541C914.3 541 868.7 541 823 541C777.3 541 731.7 541 686 541C640.3 541 594.7 541 548.8 541C503 541 457 541 411.2 541C365.3 541 319.7 541 274 541C228.3 541 182.7 541 137 541C91.3 541 45.7 541 22.8 541L0 541Z" fill="#cccccc"></path></svg>